<svg width="28" height="27" viewBox="0 0 28 27" fill="none" xmlns="http://www.w3.org/2000/svg">
<circle cx="14" cy="13.0973" r="13.0556" fill="white"/>
<path d="M14.3295 9.75864C12.3024 9.75864 10.6672 11.3938 10.6672 13.421C10.6672 15.4481 12.3024 17.0833 14.3295 17.0833C16.3567 17.0833 17.9919 15.4481 17.9919 13.421C17.9919 11.3938 16.3567 9.75864 14.3295 9.75864ZM14.3295 15.8019C13.0195 15.8019 11.9486 14.7342 11.9486 13.421C11.9486 12.1078 13.0163 11.04 14.3295 11.04C15.6427 11.04 16.7105 12.1078 16.7105 13.421C16.7105 14.7342 15.6396 15.8019 14.3295 15.8019ZM18.9959 9.60884C18.9959 10.0838 18.6134 10.4631 18.1417 10.4631C17.6667 10.4631 17.2874 10.0806 17.2874 9.60884C17.2874 9.1371 17.6699 8.75461 18.1417 8.75461C18.6134 8.75461 18.9959 9.1371 18.9959 9.60884ZM21.4215 10.4758C21.3673 9.33153 21.1059 8.31794 20.2676 7.48285C19.4326 6.64775 18.419 6.38638 17.2747 6.32901C16.0954 6.26207 12.5605 6.26207 11.3812 6.32901C10.2401 6.3832 9.22653 6.64456 8.38824 7.47966C7.54996 8.31475 7.29178 9.32835 7.23441 10.4726C7.16747 11.652 7.16747 15.1868 7.23441 16.3661C7.28859 17.5104 7.54996 18.524 8.38824 19.3591C9.22653 20.1942 10.2369 20.4555 11.3812 20.5129C12.5605 20.5798 16.0954 20.5798 17.2747 20.5129C18.419 20.4587 19.4326 20.1974 20.2676 19.3591C21.1027 18.524 21.3641 17.5104 21.4215 16.3661C21.4884 15.1868 21.4884 11.6551 21.4215 10.4758ZM19.8979 17.6315C19.6493 18.2562 19.168 18.7375 18.5401 18.9893C17.5998 19.3623 15.3686 19.2762 14.3295 19.2762C13.2904 19.2762 11.0561 19.3591 10.119 18.9893C9.49427 18.7407 9.01297 18.2594 8.76117 17.6315C8.38824 16.6912 8.4743 14.46 8.4743 13.421C8.4743 12.3819 8.39143 10.1475 8.76117 9.21041C9.00978 8.58568 9.49108 8.10439 10.119 7.85258C11.0593 7.47966 13.2904 7.56572 14.3295 7.56572C15.3686 7.56572 17.603 7.48285 18.5401 7.85258C19.1648 8.1012 19.6461 8.5825 19.8979 9.21041C20.2708 10.1507 20.1848 12.3819 20.1848 13.421C20.1848 14.46 20.2708 16.6944 19.8979 17.6315Z" fill="#4BAF47"/>
</svg>
